HIERARCHY
ROOT Hips
{
	OFFSET 54.752899 -60.120716 96.627693
	CHANNELS 6 Xposition Yposition Zposition Xrotation Yrotation Zrotation
	JOINT spine
	{
		OFFSET 0.000000 -0.467659 8.132492
		CHANNELS 3 Xrotation Yrotation Zrotation
		JOINT spine1
		{
			OFFSET 0.000000 -0.000004 10.349800
			CHANNELS 3 Xrotation Yrotation Zrotation
			JOINT spine2
			{
				OFFSET 0.000000 0.000000 9.916992
				CHANNELS 3 Xrotation Yrotation Zrotation
				JOINT Neck
				{
					OFFSET 0.000000 -1.213905 25.460999
					CHANNELS 3 Xrotation Yrotation Zrotation
					JOINT Head
					{
						OFFSET 0.000000 -0.000004 7.692444
						CHANNELS 3 Xrotation Yrotation Zrotation
						End Site
						{
							OFFSET 0.000000 6.140625 18.619995
						}
					}
				}
				JOINT RightShoulder
				{
					OFFSET -4.175751 0.581440 10.709595
					CHANNELS 3 Xrotation Yrotation Zrotation
					JOINT RightArm
					{
						OFFSET 0.000000 0.000000 14.046600
						CHANNELS 3 Xrotation Yrotation Zrotation
						JOINT RightArmRoll
						{
							OFFSET 0.000000 -0.000004 7.090988
							CHANNELS 3 Xrotation Yrotation Zrotation
							JOINT RightForeArm
							{
								OFFSET 0.000000 -0.000004 20.653503
								CHANNELS 3 Xrotation Yrotation Zrotation
								JOINT RightForeArmRoll
								{
									OFFSET 0.000000 0.000000 7.957184
									CHANNELS 3 Xrotation Yrotation Zrotation
									JOINT RightHand
									{
										OFFSET 0.000000 -0.000004 15.968292
										CHANNELS 3 Xrotation Yrotation Zrotation
										End Site
										{
											OFFSET 0.000000 0.000000 0.100006
										}
									}
								}
							}
						}
					}
				}
				JOINT LeftShoulder
				{
					OFFSET 4.175751 0.581440 10.709595
					CHANNELS 3 Xrotation Yrotation Zrotation
					JOINT LeftArm
					{
						OFFSET 0.000000 0.000000 14.046600
						CHANNELS 3 Xrotation Yrotation Zrotation
						JOINT LeftArmRoll
						{
							OFFSET 0.000000 -0.000004 7.090988
							CHANNELS 3 Xrotation Yrotation Zrotation
							JOINT LeftForeArm
							{
								OFFSET 0.000000 -0.000004 20.653503
								CHANNELS 3 Xrotation Yrotation Zrotation
								JOINT LeftForeArmRoll
								{
									OFFSET 0.000000 0.000000 7.957184
									CHANNELS 3 Xrotation Yrotation Zrotation
									JOINT LeftHand
									{
										OFFSET 0.000000 -0.000004 15.968292
										CHANNELS 3 Xrotation Yrotation Zrotation
										End Site
										{
											OFFSET 0.000000 0.000000 0.100006
										}
									}
								}
							}
						}
					}
				}
			}
		}
	}
	JOINT RightUpLeg
	{
		OFFSET -7.208340 1.108841 -1.321823
		CHANNELS 3 Xrotation Yrotation Zrotation
		JOINT RightUpLegRoll
		{
			OFFSET 0.000000 -0.000004 18.723801
			CHANNELS 3 Xrotation Yrotation Zrotation
			JOINT RightLeg
			{
				OFFSET 0.000000 0.000004 -23.186600
				CHANNELS 3 Xrotation Yrotation Zrotation
				JOINT RightLegRoll
				{
					OFFSET 0.000000 -0.000004 23.262398
					CHANNELS 3 Xrotation Yrotation Zrotation
					JOINT RightFoot
					{
						OFFSET 0.000000 -0.000004 19.362091
						CHANNELS 3 Xrotation Yrotation Zrotation
						JOINT RightToeBase
						{
							OFFSET 0.000000 0.000000 16.185699
							CHANNELS 3 Xrotation Yrotation Zrotation
							End Site
							{
								OFFSET 0.006859 0.903519 7.838623
							}
						}
					}
				}
			}
		}
	}
	JOINT LeftUpLeg
	{
		OFFSET 7.208340 1.108841 -1.321823
		CHANNELS 3 Xrotation Yrotation Zrotation
		JOINT LeftUpLegRoll
		{
			OFFSET 0.000000 -0.000004 18.723900
			CHANNELS 3 Xrotation Yrotation Zrotation
			JOINT LeftLeg
			{
				OFFSET 0.000000 -0.000004 23.186493
				CHANNELS 3 Xrotation Yrotation Zrotation
				JOINT LeftLegRoll
				{
					OFFSET 0.000000 -0.000004 23.477509
					CHANNELS 3 Xrotation Yrotation Zrotation
					JOINT LeftFoot
					{
						OFFSET 0.000000 -0.000004 19.147003
						CHANNELS 3 Xrotation Yrotation Zrotation
						JOINT LeftToeBase
						{
							OFFSET 0.000000 0.000000 16.185699
							CHANNELS 3 Xrotation Yrotation Zrotation
							End Site
							{
								OFFSET -0.030746 0.903519 7.838623
							}
						}
					}
				}
			}
		}
	}
}
MOTION
Frames: 10
Frame Time: 0.041667
52.852798 -33.599419 81.032394 24.922296 -0.155950 -0.265006 2.142057 -0.736791 -0.139766 8.285936 -1.472671 -0.246655 9.931268 -1.477602 -0.229072 -33.561354 8.942937 -2.443827 1.151320 -4.404882 -6.187681 -15.762458 -44.287633 -18.296016 -45.968911 -150.008016 -73.362290 -0.000001 0.000001 -0.000006 37.881735 -20.515619 6.930167 -0.000012 -0.000003 -3.010126 -4.999713 -7.998770 0.000015 -14.152213 57.930700 16.686060 -55.326151 136.898561 86.099862 0.000001 -0.000000 0.000005 41.322388 10.804806 -5.981737 0.000004 -0.000016 3.001501 -5.000128 7.998796 -0.000151 -73.110919 -173.253677 0.750207 -179.999991 0.000005 -0.609999 121.716730 -5.509666 -4.661748 0.000004 0.000002 0.779154 74.337156 7.284024 0.537784 25.456957 -7.355614 0.000008 -72.742000 170.867660 0.804656 -0.000035 -0.000005 -0.509976 -58.275358 4.135173 3.872947 0.000002 0.000001 -0.711498 74.365317 -5.916640 -4.632312 25.458820 7.354712 -0.002846 
52.843800 -33.690704 81.138901 24.844405 -0.158341 -0.273027 2.132963 -0.736163 -0.139938 8.267729 -1.472393 -0.247356 9.913067 -1.476965 -0.229774 -33.601221 8.911437 -2.440955 1.176877 -4.376118 -6.176381 -15.769942 -44.323078 -18.306587 -46.009059 -150.153581 -73.287725 -0.000002 0.000001 -0.000010 37.499422 -20.590891 6.885331 -0.000010 -0.000004 -3.010130 -4.999717 -7.998769 0.000014 -14.196027 57.958076 16.739101 -55.372111 137.026080 86.040631 0.000001 0.000000 0.000004 40.959541 10.921720 -5.977537 0.000007 -0.000016 3.001500 -5.000131 7.998794 -0.000150 -72.841625 -173.281530 0.737711 -179.999991 0.000005 -0.609999 121.906145 -5.506998 -4.639670 0.000004 0.000001 0.775210 74.340380 7.278452 0.554005 25.456952 -7.355613 0.000008 -72.470465 170.873096 0.810611 -0.000035 -0.000004 -0.509943 -58.091606 4.143483 3.859107 0.000002 0.000001 -0.707414 74.376669 -5.918047 -4.627908 25.458821 7.354713 -0.002846 
52.834999 -33.782814 81.243385 24.766102 -0.160454 -0.280814 2.123776 -0.735501 -0.140014 8.249364 -1.472046 -0.247848 9.894700 -1.476269 -0.230265 -33.640232 8.877598 -2.438733 1.204261 -4.344952 -6.164792 -15.777102 -44.360361 -18.316771 -46.049532 -150.294624 -73.213870 -0.000002 0.000001 -0.000009 37.121450 -20.664027 6.840105 -0.000012 -0.000005 -3.010129 -4.999716 -7.998765 0.000018 -14.238866 57.984222 16.790929 -55.416415 137.153368 85.977260 -0.000000 0.000000 0.000006 40.596684 11.037007 -5.971266 0.000004 -0.000014 3.001502 -5.000128 7.998795 -0.000154 -72.572290 -173.309042 0.724553 -179.999991 0.000005 -0.609999 122.095779 -5.504517 -4.619505 0.000005 0.000001 0.771270 74.342955 7.272942 0.570278 25.456950 -7.355613 0.000007 -72.198959 170.879367 0.815609 -0.000038 -0.000005 -0.509947 -57.908106 4.151235 3.844890 0.000001 0.000001 -0.703493 74.387802 -5.919768 -4.622758 25.458820 7.354713 -0.002847 
52.827900 -33.877319 81.354897 24.687509 -0.162211 -0.288298 2.114531 -0.734798 -0.139989 8.230871 -1.471581 -0.248118 9.876208 -1.475465 -0.230539 -33.678724 8.840725 -2.437411 1.234132 -4.310882 -6.152897 -15.783838 -44.400703 -18.326567 -46.091151 -150.430668 -73.141463 -0.000002 0.000001 -0.000007 36.748224 -20.735160 6.794545 -0.000011 -0.000004 -3.010130 -4.999718 -7.998768 0.000017 -14.280385 58.008899 16.841141 -55.458100 137.280860 85.908385 0.000000 0.000001 0.000003 40.234640 11.150182 -5.962807 0.000005 -0.000014 3.001503 -5.000132 7.998793 -0.000151 -72.302614 -173.336322 0.711330 -179.999991 0.000005 -0.610000 122.285753 -5.502254 -4.599275 0.000005 0.000001 0.767332 74.345202 7.267420 0.586570 25.456952 -7.355616 0.000008 -71.927616 170.886033 0.821399 -0.000036 -0.000004 -0.509987 -57.724729 4.158337 3.830244 0.000002 0.000001 -0.699737 74.398922 -5.921707 -4.616839 25.458821 7.354713 -0.002845 
52.827202 -33.967415 81.456696 24.608309 -0.163543 -0.295412 2.105250 -0.734046 -0.139860 8.212304 -1.470976 -0.248153 9.857644 -1.474544 -0.230580 -33.716952 8.800212 -2.437173 1.267184 -4.273436 -6.140701 -15.790450 -44.445168 -18.336242 -46.134468 -150.561097 -73.070737 -0.000002 0.000001 -0.000007 36.380292 -20.804336 6.748806 -0.000012 -0.000004 -3.010128 -4.999714 -7.998766 0.000018 -14.320107 58.031534 16.889154 -55.497660 137.407792 85.834659 -0.000001 0.000000 0.000002 39.874054 11.260696 -5.952009 0.000005 -0.000014 3.001500 -5.000130 7.998794 -0.000151 -72.032227 -173.363465 0.698752 -179.999991 0.000005 -0.609999 122.476247 -5.499689 -4.578092 0.000004 0.000001 0.763399 74.347039 7.261985 0.602600 25.456952 -7.355614 0.000007 -71.656129 170.893218 0.827579 -0.000039 -0.000004 -0.510065 -57.541482 4.164690 3.815111 0.000001 0.000001 -0.696147 74.409925 -5.923901 -4.610260 25.458825 7.354713 -0.002845 
52.828602 -34.065216 81.569984 24.528609 -0.164374 -0.302085 2.095953 -0.733236 -0.139626 8.193703 -1.470164 -0.247945 9.839043 -1.473464 -0.230377 -33.755027 8.755204 -2.438399 1.304116 -4.232113 -6.128184 -15.796795 -44.494769 -18.345731 -46.179869 -150.685229 -73.002325 -0.000002 0.000001 -0.000009 36.018152 -20.871689 6.703004 -0.000014 -0.000005 -3.010128 -4.999718 -7.998767 0.000017 -14.357647 58.051663 16.934481 -55.534072 137.534492 85.754815 -0.000000 0.000001 0.000002 39.515704 11.368238 -5.938883 0.000003 -0.000016 3.001497 -5.000133 7.998791 -0.000151 -71.761212 -173.390431 0.686731 -179.999991 0.000005 -0.609999 122.667165 -5.497373 -4.557825 0.000004 0.000001 0.759468 74.348556 7.256565 0.618654 25.456952 -7.355616 0.000008 -71.384288 170.901182 0.833977 -0.000036 -0.000005 -0.510182 -57.358160 4.170220 3.799456 0.000002 0.000001 -0.692724 74.420689 -5.926349 -4.603229 25.458827 7.354712 -0.002846 
52.817200 -34.168411 81.673492 24.448111 -0.164634 -0.308251 2.086672 -0.732361 -0.139284 8.175136 -1.469124 -0.247480 9.820472 -1.472197 -0.229921 -33.793317 8.705174 -2.441227 1.345620 -4.186427 -6.115351 -15.802925 -44.550711 -18.355136 -46.228930 -150.801206 -72.938190 -0.000002 0.000001 -0.000009 35.662313 -20.937393 6.657307 -0.000013 -0.000004 -3.010127 -4.999716 -7.998765 0.000021 -14.392566 58.068848 16.976599 -55.567161 137.660851 85.668406 0.000000 0.000000 0.000005 39.160213 11.472168 -5.923239 0.000003 -0.000016 3.001500 -5.000131 7.998795 -0.000150 -71.488981 -173.417260 0.675861 -179.999991 0.000005 -0.609999 122.858738 -5.495332 -4.537442 0.000004 0.000001 0.755538 74.349690 7.251287 0.634353 25.456955 -7.355616 0.000008 -71.112255 170.909501 0.842031 -0.000032 -0.000004 -0.510340 -57.174923 4.174806 3.783239 0.000002 0.000001 -0.689468 74.431406 -5.928935 -4.595619 25.458821 7.354712 -0.002845 
52.805695 -34.256714 81.776993 24.366807 -0.164251 -0.313838 2.077410 -0.731414 -0.138831 8.156629 -1.467816 -0.246747 9.801969 -1.470703 -0.229202 -33.831935 8.649277 -2.446029 1.392368 -4.135890 -6.102200 -15.809004 -44.614061 -18.364620 -46.281696 -150.909096 -72.878084 -0.000002 0.000001 -0.000010 35.313451 -21.001524 6.611926 -0.000010 -0.000004 -3.010126 -4.999715 -7.998766 0.000017 -14.424511 58.082822 17.015074 -55.596579 137.786554 85.575119 -0.000000 0.000001 0.000003 38.808339 11.572015 -5.905034 0.000004 -0.000016 3.001497 -5.000133 7.998794 -0.000153 -71.215780 -173.443242 0.664189 -179.999991 0.000004 -0.609999 123.050830 -5.493557 -4.517946 0.000004 0.000001 0.751610 74.350543 7.246101 0.649783 25.456955 -7.355613 0.000008 -70.839498 170.919050 0.849465 -0.000036 -0.000004 -0.510536 -56.991491 4.178379 3.766402 0.000002 0.000001 -0.686379 74.441979 -5.931687 -4.587738 25.458823 7.354711 -0.002845 
52.806599 -34.349808 81.869400 24.285308 -0.163197 -0.318852 2.068039 -0.730338 -0.138263 8.137870 -1.466192 -0.245738 9.783204 -1.468953 -0.228208 -33.870635 8.587045 -2.452772 1.444027 -4.079695 -6.088637 -15.814381 -44.684525 -18.373438 -46.337714 -151.007846 -72.821940 -0.000002 0.000001 -0.000008 34.971491 -21.063363 6.566899 -0.000012 -0.000004 -3.010128 -4.999717 -7.998765 0.000016 -14.452967 58.093238 17.049279 -55.622615 137.911847 85.474654 -0.000000 0.000000 0.000005 38.457909 11.668391 -5.884492 0.000007 -0.000014 3.001499 -5.000134 7.998791 -0.000150 -70.942135 -173.469156 0.653732 -179.999991 0.000005 -0.609999 123.243360 -5.492044 -4.497349 0.000004 0.000002 0.747662 74.350994 7.241004 0.665051 25.456948 -7.355616 0.000008 -70.567240 170.929090 0.858461 -0.000034 -0.000005 -0.510784 -56.808357 4.180916 3.748884 0.000002 0.000001 -0.683530 74.452498 -5.934853 -4.578815 25.458823 7.354713 -0.002846 
52.802799 -34.446213 81.976990 24.204106 -0.161537 -0.323375 2.058396 -0.729102 -0.137582 8.118610 -1.464293 -0.244459 9.763942 -1.466947 -0.226948 -33.909266 8.518838 -2.461133 1.499565 -4.017857 -6.074599 -15.818935 -44.760600 -18.381231 -46.395405 -151.098592 -72.768262 -0.000002 0.000001 -0.000008 34.635930 -21.122223 6.522232 -0.000010 -0.000002 -3.010127 -4.999714 -7.998770 0.000016 -14.478135 58.100772 17.079496 -55.645087 138.037604 85.366190 0.000000 -0.000000 0.000003 38.106476 11.762100 -5.861818 0.000005 -0.000016 3.001500 -5.000134 7.998794 -0.000149 -70.669208 -173.494947 0.643339 -179.999991 0.000005 -0.610000 123.436121 -5.490769 -4.477647 0.000004 0.000001 0.743683 74.350823 7.235988 0.680069 25.456955 -7.355615 0.000008 -70.296211 170.939882 0.867910 -0.000033 -0.000003 -0.511086 -56.626035 4.182506 3.730729 0.000001 0.000001 -0.680972 74.463016 -5.938611 -4.568275 25.458825 7.354713 -0.002847 
